HIERARCHY
ROOT hip
{
  OFFSET 60.1938 85.3094 -126.435
  CHANNELS 6 Xposition Yposition Zposition Zrotation Xrotation Yrotation
  JOINT abdomen
  {
    OFFSET 0 20.6881 -0.73152
    CHANNELS 3 Zrotation Xrotation Yrotation
    JOINT chest
    {
      OFFSET 0 11.7043 -0.48768
      CHANNELS 3 Zrotation Xrotation Yrotation
      JOINT neck
      {
        OFFSET 0 22.1894 -2.19456
        CHANNELS 3 Zrotation Xrotation Yrotation
        JOINT head
        {
          OFFSET -0.24384 7.07133 1.2192
          CHANNELS 3 Zrotation Xrotation Yrotation
          JOINT leftEye
          {
            OFFSET 4.14528 8.04674 8.04672
            CHANNELS 3 Zrotation Xrotation Yrotation
            End Site
            {
              OFFSET 1 0 0
            }
          }
          JOINT rightEye
          {
            OFFSET -3.6576 8.04674 8.04672
            CHANNELS 3 Zrotation Xrotation Yrotation
            End Site
            {
              OFFSET 1 0 0
            }
          }
        }
      }
      JOINT rCollar
      {
        OFFSET -2.68224 19.2634 -4.8768
        CHANNELS 3 Zrotation Xrotation Yrotation
        JOINT rShldr
        {
          OFFSET -8.77824 -1.95073 1.46304
          CHANNELS 3 Zrotation Xrotation Yrotation
          JOINT rForeArm
          {
            OFFSET -28.1742 -1.7115 0.48768
            CHANNELS 3 Zrotation Xrotation Yrotation
            JOINT rHand
            {
              OFFSET -22.5879 0.773209 7.07136
              CHANNELS 3 Zrotation Xrotation Yrotation
              JOINT rThumb1
              {
                OFFSET -1.2192 -0.487915 3.41376
                CHANNELS 3 Zrotation Xrotation Yrotation
                JOINT rThumb2
                {
                  OFFSET -3.37035 -0.52449 3.41376
                  CHANNELS 3 Zrotation Xrotation Yrotation
                  End Site
                  {
                    OFFSET -1.78271 -1.18214 1.43049
                  }
                }
              }
              JOINT rIndex1
              {
                OFFSET -7.75947 0.938293 5.60832
                CHANNELS 3 Zrotation Xrotation Yrotation
                JOINT rIndex2
                {
                  OFFSET -2.54057 -0.884171 1.56538
                  CHANNELS 3 Zrotation Xrotation Yrotation
                  End Site
                  {
                    OFFSET -1.62519 -0.234802 1.16502
                  }
                }
              }
              JOINT rMid1
              {
                OFFSET -8.24714 1.18213 3.41376
                CHANNELS 3 Zrotation Xrotation Yrotation
                JOINT rMid2
                {
                  OFFSET -3.10165 -0.590103 1.0647
                  CHANNELS 3 Zrotation Xrotation Yrotation
                  End Site
                  {
                    OFFSET -2.48547 -0.328903 0.83742
                  }
                }
              }
              JOINT rRing1
              {
                OFFSET -8.82822 0.546677 1.51678
                CHANNELS 3 Zrotation Xrotation Yrotation
                JOINT rRing2
                {
                  OFFSET -2.60934 -0.819778 -0.0198488
                  CHANNELS 3 Zrotation Xrotation Yrotation
                  End Site
                  {
                    OFFSET -2.33842 -0.294052 0.168128
                  }
                }
              }
              JOINT rPinky1
              {
                OFFSET -8.27202 -0.0477905 -0.4584
                CHANNELS 3 Zrotation Xrotation Yrotation
                JOINT rPinky2
                {
                  OFFSET -1.82734 -0.647385 -0.700984
                  CHANNELS 3 Zrotation Xrotation Yrotation
                  End Site
                  {
                    OFFSET -1.69225 -0.51767 -0.607171
                  }
                }
              }
            }
          }
        }
      }
      JOINT lCollar
      {
        OFFSET 2.68224 19.2634 -4.8768
        CHANNELS 3 Zrotation Xrotation Yrotation
        JOINT lShldr
        {
          OFFSET 8.77824 -1.95073 1.46304
          CHANNELS 3 Zrotation Xrotation Yrotation
          JOINT lForeArm
          {
            OFFSET 28.1742 -1.7115 0.48768
            CHANNELS 3 Zrotation Xrotation Yrotation
            JOINT lHand
            {
              OFFSET 22.5879 0.773209 7.07136
              CHANNELS 3 Zrotation Xrotation Yrotation
              JOINT lThumb1
              {
                OFFSET 1.2192 -0.487915 3.41376
                CHANNELS 3 Zrotation Xrotation Yrotation
                JOINT lThumb2
                {
                  OFFSET 3.37035 -0.52449 3.41376
                  CHANNELS 3 Zrotation Xrotation Yrotation
                  End Site
                  {
                    OFFSET 1.78271 -1.18214 1.43049
                  }
                }
              }
              JOINT lIndex1
              {
                OFFSET 7.75947 0.938293 5.60832
                CHANNELS 3 Zrotation Xrotation Yrotation
                JOINT lIndex2
                {
                  OFFSET 2.54057 -0.884171 1.56538
                  CHANNELS 3 Zrotation Xrotation Yrotation
                  End Site
                  {
                    OFFSET 1.62519 -0.234802 1.16502
                  }
                }
              }
              JOINT lMid1
              {
                OFFSET 8.24714 1.18213 3.41376
                CHANNELS 3 Zrotation Xrotation Yrotation
                JOINT lMid2
                {
                  OFFSET 3.10165 -0.590103 1.0647
                  CHANNELS 3 Zrotation Xrotation Yrotation
                  End Site
                  {
                    OFFSET 2.48547 -0.328903 0.83742
                  }
                }
              }
              JOINT lRing1
              {
                OFFSET 8.82822 0.546677 1.51678
                CHANNELS 3 Zrotation Xrotation Yrotation
                JOINT lRing2
                {
                  OFFSET 2.60934 -0.819778 -0.0198488
                  CHANNELS 3 Zrotation Xrotation Yrotation
                  End Site
                  {
                    OFFSET 2.33842 -0.294052 0.168128
                  }
                }
              }
              JOINT lPinky1
              {
                OFFSET 8.27202 -0.0477905 -0.4584
                CHANNELS 3 Zrotation Xrotation Yrotation
                JOINT lPinky2
                {
                  OFFSET 1.82734 -0.647385 -0.700984
                  CHANNELS 3 Zrotation Xrotation Yrotation
                  End Site
                  {
                    OFFSET 1.69225 -0.51767 -0.607171
                  }
                }
              }
            }
          }
        }
      }
    }
  }
  JOINT rButtock
  {
    OFFSET -8.77824 4.35084 1.2192
    CHANNELS 3 Zrotation Xrotation Yrotation
    JOINT rThigh
    {
      OFFSET 0 -1.70687 -2.19456
      CHANNELS 3 Zrotation Xrotation Yrotation
      JOINT rShin
      {
        OFFSET 0 -36.8199 0.73152
        CHANNELS 3 Zrotation Xrotation Yrotation
        JOINT rFoot
        {
          OFFSET 0.73152 -45.1104 -5.12064
          CHANNELS 3 Zrotation Xrotation Yrotation
          End Site
          {
            OFFSET -1.1221 -3.69964 12.103
          }
        }
      }
    }
  }
  JOINT lButtock
  {
    OFFSET 8.77824 4.35084 1.2192
    CHANNELS 3 Zrotation Xrotation Yrotation
    JOINT lThigh
    {
      OFFSET 0 -1.70687 -2.19456
      CHANNELS 3 Zrotation Xrotation Yrotation
      JOINT lShin
      {
        OFFSET 0 -36.8199 0.73152
        CHANNELS 3 Zrotation Xrotation Yrotation
        JOINT lFoot
        {
          OFFSET -0.73152 -45.1104 -5.12064
          CHANNELS 3 Zrotation Xrotation Yrotation
          End Site
          {
            OFFSET 1.1221 -3.69964 12.103
          }
        }
      }
    }
  }
}
MOTION
Frames:	9
Frame Time:	0.0416667
57.8397 84.3346 -63.6916 4.36071 4.31203 -0.315292 -3.56757 2.15331 -0.466412 3.70137 -3.53265 0.135236 5.5302 8.80817 5.14001 -8.78321 -13.0525 8.40519 -2.20695e-32 3.97569e-16 3.18055e-15 -2.20695e-32 3.97569e-16 3.18055e-15 -1.02995e-14 -3.97569e-16 1.98785e-16 86.0267 38.0117 -18.1059 -15.6593 -8.37427 28.9572 -0.0219145 -4.31734 -0.607858 -9.61975e-11 2.73528e-13 1.36764e-12 -1.66139e-10 4.73903e-13 2.34248e-12 -9.61943e-11 2.70347e-13 1.36128e-12 7.73091 5.47488 0.417314 -9.61975e-11 2.76708e-13 1.36764e-12 2.90554 0.965183 0.102902 -9.61879e-11 2.73528e-13 1.36446e-12 10.2786 0.731801 0.0259123 -9.62038e-11 2.76708e-13 1.36605e-12 2.22167 -0.733487 -0.20892 -1.1076e-14 -3.97569e-16 -9.93923e-17 -77.7241 38.1221 9.54788 17.5122 -10.1697 -32.9399 0.536076 -20.351 2.98804 -9.61768e-11 2.91021e-13 1.36128e-12 -1.66076e-10 5.1843e-13 2.36315e-12 -9.61784e-11 2.92611e-13 1.37082e-12 -7.73091 5.47488 -0.417314 -9.61768e-11 2.91021e-13 1.36128e-12 -2.90554 0.965183 -0.102902 -9.61863e-11 2.92611e-13 1.3581e-12 -10.2786 0.731801 -0.0259123 -9.6168e-11 2.92611e-13 1.35174e-12 -2.22167 -0.733487 0.20892 -3.10601e-18 -2.38542e-15 -0 4.07198 -38.0027 4.6041 -0.36289 38.6335 0.04328 -1.4957 -5.60602 -8.0798 -3.10601e-18 -2.38542e-15 -0 -0.909133 -7.74507 1.95857 0.501733 44.9013 -0.608824 0.209606 13.1158 1.05266 
56.6813 84.113 -60.0767 3.21838 4.3377 0.0584675 -0.985774 2.13405 -0.700759 3.77389 -3.45582 0.14487 4.97034 9.16194 5.00456 -7.56289 -13.8112 8.32518 3.97569e-16 0 1.59028e-15 3.97569e-16 0 1.59028e-15 -9.43606e-15 -3.97569e-16 9.93923e-17 84.3362 37.6512 -16.3611 -15.7488 -8.455 29.1464 -0.00829506 -2.53793 -0.356943 -9.62022e-11 2.79889e-13 1.36764e-12 -1.66144e-10 4.73903e-13 2.35361e-12 -9.61959e-11 2.76708e-13 1.36128e-12 7.73091 5.47488 0.417314 -9.62038e-11 2.79889e-13 1.36764e-12 2.90554 0.965183 0.102902 -9.61927e-11 2.79889e-13 1.36764e-12 10.2786 0.731801 0.0259123 -9.62102e-11 2.76708e-13 1.36764e-12 2.22167 -0.733487 -0.20892 -1.02188e-14 -3.97569e-16 -1.98785e-16 -79.2502 36.7293 11.0603 17.5226 -10.1834 -32.9554 0.43501 -18.4198 2.68273 -9.61696e-11 3.00562e-13 1.36446e-12 -1.66085e-10 5.1525e-13 2.36633e-12 -9.61752e-11 3.00562e-13 1.37082e-12 -7.73091 5.47488 -0.417314 -9.61696e-11 2.97382e-13 1.36446e-12 -2.90554 0.965183 -0.102902 -9.618e-11 2.97382e-13 1.36446e-12 -10.2786 0.731801 -0.0259123 -9.61673e-11 3.02153e-13 1.35492e-12 -2.22167 -0.733487 0.20892 2.27515e-16 -7.95139e-16 6.21202e-17 6.95604 -35.7966 4.53074 -0.368489 39.2829 -0.0690375 -1.81209 -8.43323 -8.07588 1.02498e-15 -7.95139e-16 8.69683e-17 1.58568 -16.7628 1.00208 0.957626 56.7693 -1.04914 0.0258311 14.0609 1.54584 
55.6603 84.7818 -56.1932 2.36152 3.9712 -0.577787 -0.195795 2.38375 -0.00941562 3.74295 -3.49672 0.353893 4.96499 9.23205 4.72236 -7.71285 -13.6128 7.77069 0 3.97569e-16 -0 0 3.97569e-16 -0 -1.06785e-14 0 3.97569e-16 82.671 37.9329 -14.8913 -16.3757 -9.04149 30.4691 -0.0167766 -3.49116 -0.491264 -9.61975e-11 2.79889e-13 1.36764e-12 -1.66144e-10 4.80264e-13 2.35043e-12 -9.61959e-11 2.76708e-13 1.36128e-12 7.73091 5.47488 0.417314 -9.62006e-11 2.83069e-13 1.36446e-12 2.90554 0.965183 0.102902 -9.61911e-11 2.83069e-13 1.36128e-12 10.2786 0.731801 0.0259123 -9.62086e-11 2.79889e-13 1.36446e-12 2.22167 -0.733487 -0.20892 -1.14612e-14 0 -0 -80.1633 37.5529 11.8524 17.4051 -10.0616 -32.6974 0.422025 -18.1347 2.63829 -9.61704e-11 2.8625e-13 1.36446e-12 -1.66081e-10 5.24792e-13 2.36315e-12 -9.6176e-11 2.8625e-13 1.374e-12 -7.73091 5.47488 -0.417314 -9.61696e-11 2.8625e-13 1.36128e-12 -2.90554 0.965183 -0.102902 -9.61832e-11 2.8784e-13 1.36764e-12 -10.2786 0.731801 -0.0259123 -9.61712e-11 2.8943e-13 1.35492e-12 -2.22167 -0.733487 0.20892 -4.16205e-16 0 -9.93923e-17 8.52655 -32.5441 5.70419 -0.326735 38.7343 0.00270529 -1.99774 -10.7365 -7.43398 3.78933e-16 0 -0 1.84204 -22.8105 0.00188373 1.33421 62.7114 -1.50922 0.0913896 9.67429 1.55977 
54.8593 84.6068 -52.6821 2.45921 4.35927 -1.57064 -0.266423 1.82256 0.824855 3.49252 -3.81141 0.566369 4.79143 9.36716 4.6617 -7.45448 -13.5436 7.71542 9.93923e-17 3.97569e-16 -1.59028e-15 9.93923e-17 3.97569e-16 -1.59028e-15 -9.3553e-15 7.95139e-16 1.98785e-16 81.255 37.4287 -13.4732 -17.3381 -9.99229 32.5517 -0.0227779 -4.30442 -0.606098 -9.61975e-11 2.83069e-13 1.36128e-12 -1.66139e-10 4.86625e-13 2.34725e-12 -9.61943e-11 2.79889e-13 1.34856e-12 7.73091 5.47488 0.417314 -9.62022e-11 2.83069e-13 1.36446e-12 2.90554 0.965183 0.102902 -9.61895e-11 2.83069e-13 1.3581e-12 10.2786 0.731801 0.0259123 -9.6207e-11 2.83069e-13 1.36446e-12 2.22167 -0.733487 -0.20892 -1.0138e-14 7.95139e-16 -9.93923e-17 -81.0756 37.3373 13.297 17.6027 -10.2658 -33.1347 0.387051 -17.4156 2.52669 -9.61768e-11 2.94201e-13 1.36764e-12 -1.66079e-10 5.12069e-13 2.36315e-12 -9.6176e-11 2.92611e-13 1.37718e-12 -7.73091 5.47488 -0.417314 -9.61736e-11 2.94201e-13 1.37082e-12 -2.90554 0.965183 -0.102902 -9.61871e-11 2.95792e-13 1.36764e-12 -10.2786 0.731801 -0.0259123 -9.61712e-11 2.95792e-13 1.36128e-12 -2.22167 -0.733487 0.20892 -5.71506e-16 -1.59028e-15 -0 9.34204 -29.6298 4.84874 -0.26833 38.1098 0.194955 -2.37898 -12.0709 -8.07663 2.23633e-16 -1.59028e-15 1.98785e-16 1.28201 -29.6412 -0.735446 1.58829 65.896 -1.90409 0.163117 5.69309 1.82419 
53.9547 84.7153 -49.038 2.03979 4.60748 -3.09912 -0.697625 1.51396 1.76474 2.95577 -3.8139 0.763651 4.94707 9.62294 4.84381 -7.73181 -14.4015 7.98745 -3.97569e-16 3.97569e-16 -3.18055e-15 -3.97569e-16 3.97569e-16 -3.18055e-15 -7.92654e-15 -1.19271e-15 2.98177e-16 80.5188 38.6056 -12.318 -18.9007 -11.6882 36.0746 -0.0897741 -8.46229 -1.19824 -9.61991e-11 2.70347e-13 1.36764e-12 -1.66139e-10 4.73903e-13 2.34089e-12 -9.61927e-11 2.67167e-13 1.35492e-12 7.73091 5.47488 0.417314 -9.61991e-11 2.70347e-13 1.36764e-12 2.90554 0.965183 0.102902 -9.61895e-11 2.67167e-13 1.36446e-12 10.2786 0.731801 0.0259123 -9.62054e-11 2.76708e-13 1.36446e-12 2.22167 -0.733487 -0.20892 -8.70925e-15 -1.19271e-15 -0 -81.2917 36.8552 14.2803 17.9103 -10.5915 -33.8165 0.423108 -18.1946 2.6473 -9.61776e-11 2.97382e-13 1.3581e-12 -1.66077e-10 5.1366e-13 2.35679e-12 -9.6176e-11 2.94201e-13 1.36764e-12 -7.73091 5.47488 -0.417314 -9.61744e-11 2.97382e-13 1.36128e-12 -2.90554 0.965183 -0.102902 -9.61847e-11 2.95792e-13 1.3581e-12 -10.2786 0.731801 -0.0259123 -9.6172e-11 3.00562e-13 1.34856e-12 -2.22167 -0.733487 0.20892 -5.96354e-16 0 7.95139e-16 10.5907 -26.5882 6.61487 -0.212773 37.2915 0.428597 -3.00689 -14.4395 -8.85603 -1.98785e-16 0 7.95139e-16 0.511388 -34.5403 -1.19942 1.47832 65.2004 -1.92378 0.52261 0.904053 3.46622 
53.2531 84.8244 -45.4951 1.88 5.36786 -4.35303 -0.593413 0.952118 2.55127 2.26398 -4.13563 0.908926 5.28388 9.58337 5.12436 -9.14535 -14.9972 8.28459 -4.41391e-32 1.59028e-15 1.59028e-15 -4.41391e-32 1.59028e-15 1.59028e-15 -1.00262e-14 -3.97569e-16 -0 79.3895 39.1849 -11.4473 -20.3203 -13.4206 39.461 -0.109157 -9.3453 -1.32539 -9.62038e-11 2.73528e-13 1.36764e-12 -1.66141e-10 4.80264e-13 2.34725e-12 -9.61975e-11 2.73528e-13 1.36128e-12 7.73091 5.47488 0.417314 -9.62038e-11 2.73528e-13 1.36764e-12 2.90554 0.965183 0.102902 -9.61943e-11 2.79889e-13 1.36446e-12 10.2786 0.731801 0.0259123 -9.62118e-11 2.79889e-13 1.36764e-12 2.22167 -0.733487 -0.20892 -1.002e-14 -3.97569e-16 -1.98785e-16 -81.3447 37.466 14.5443 17.6937 -10.3623 -33.3337 0.518569 -20.018 2.93515 -9.61736e-11 2.97382e-13 1.36446e-12 -1.66082e-10 5.1366e-13 2.35997e-12 -9.61792e-11 2.97382e-13 1.374e-12 -7.73091 5.47488 -0.417314 -9.61736e-11 2.95792e-13 1.36446e-12 -2.90554 0.965183 -0.102902 -9.61839e-11 2.94201e-13 1.36764e-12 -10.2786 0.731801 -0.0259123 -9.6168e-11 2.98972e-13 1.36128e-12 -2.22167 -0.733487 0.20892 -6.4605e-16 -2.38542e-15 1.59028e-15 11.4533 -23.207 8.04132 -0.153244 35.8606 0.661389 -3.35647 -16.8216 -8.65756 -2.48481e-16 -2.38542e-15 1.59028e-15 0.193385 -38.3537 -1.65159 1.08995 60.643 -1.6412 0.898062 -3.20668 4.1224 
52.607 85.292 -41.7661 1.83171 5.64059 -5.63487 -1.08051 0.229144 3.05183 1.87601 -4.26785 0.981952 4.65324 10.0543 5.50121 -9.52797 -16.1818 8.99241 1.98785e-16 -7.95139e-16 4.77083e-15 1.98785e-16 -7.95139e-16 4.77083e-15 -9.7653e-15 -1.98785e-16 1.98785e-16 78.1813 40.6222 -10.5 -21.6781 -15.2826 42.9236 -0.166809 -11.5901 -1.65154 -9.61895e-11 2.68757e-13 1.3581e-12 -1.66139e-10 4.80264e-13 2.34089e-12 -9.61847e-11 2.68757e-13 1.35492e-12 7.73091 5.47488 0.417314 -9.61895e-11 2.68757e-13 1.3581e-12 2.90554 0.965183 0.102902 -9.61784e-11 2.73528e-13 1.35492e-12 10.2786 0.731801 0.0259123 -9.61943e-11 2.71937e-13 1.36128e-12 2.22167 -0.733487 -0.20892 -9.75908e-15 -1.98785e-16 -0 -81.9287 35.7866 15.4095 17.806 -10.4796 -33.5866 0.470579 -19.1259 2.79352 -9.61768e-11 2.97382e-13 1.3581e-12 -1.66084e-10 5.1684e-13 2.35997e-12 -9.61784e-11 2.98972e-13 1.36446e-12 -7.73091 5.47488 -0.417314 -9.61768e-11 2.95792e-13 1.3581e-12 -2.90554 0.965183 -0.102902 -9.61816e-11 2.97382e-13 1.3581e-12 -10.2786 0.731801 -0.0259123 -9.6168e-11 3.00562e-13 1.34537e-12 -2.22167 -0.733487 0.20892 -9.93923e-17 7.95139e-16 -0 11.6232 -19.3492 9.20347 -0.0813198 32.6717 0.790295 -3.6122 -17.1124 -9.21323 2.98177e-16 7.95139e-16 -0 -0.110748 -40.485 -2.06274 0.662257 52.335 -1.25797 1.15506 -6.30332 4.40525 
51.897 86.1974 -38.0218 1.67586 5.87792 -7.38977 -1.34394 -0.0614862 3.9601 1.07164 -4.46988 1.17731 5.4757 9.88472 6.11715 -11.2578 -16.5062 9.841 -7.95139e-16 -2.38542e-15 -0 -7.95139e-16 -2.38542e-15 -0 -9.6659e-15 1.98785e-16 3.97569e-16 77.3642 40.8491 -9.71909 -22.6984 -16.8431 45.7212 -0.125926 -10.0667 -1.42967 -9.61943e-11 2.8466e-13 1.36128e-12 -1.66147e-10 4.86625e-13 2.34089e-12 -9.61879e-11 2.81479e-13 1.35492e-12 7.73091 5.47488 0.417314 -9.61943e-11 2.81479e-13 1.36128e-12 2.90554 0.965183 0.102902 -9.61863e-11 2.8466e-13 1.36128e-12 10.2786 0.731801 0.0259123 -9.62022e-11 2.81479e-13 1.36128e-12 2.22167 -0.733487 -0.20892 -9.86469e-15 0 -0 -81.5234 35.3044 15.4035 17.5393 -10.1998 -32.9947 0.47475 -19.1379 2.79547 -9.61752e-11 2.97382e-13 1.3581e-12 -1.66079e-10 5.12069e-13 2.36951e-12 -9.61768e-11 2.98972e-13 1.36764e-12 -7.73091 5.47488 -0.417314 -9.6172e-11 2.97382e-13 1.3581e-12 -2.90554 0.965183 -0.102902 -9.61816e-11 2.95792e-13 1.3581e-12 -10.2786 0.731801 -0.0259123 -9.61665e-11 3.03743e-13 1.34856e-12 -2.22167 -0.733487 0.20892 -2.98177e-16 0 -0 11.1419 -13.7663 9.84699 0.00962214 26.9412 0.786119 -3.20419 -16.3422 -8.49112 9.93923e-17 0 -0 0.0668355 -40.2909 -2.72316 0.348408 41.4149 -0.929112 1.37119 -9.86667 4.36067 
51.1432 86.8797 -34.3947 1.37876 6.81504 -8.5276 -2.04125 -1.3844 4.051 0.983198 -4.13506 1.17824 5.71105 9.96103 6.61076 -12.3772 -16.9131 10.5995 -7.95139e-16 -7.95139e-16 -0 -7.95139e-16 -7.95139e-16 -0 -9.82742e-15 3.97569e-16 7.95139e-16 76.3658 42.0349 -8.39899 -23.3943 -18.0062 47.7479 -0.141382 -10.3703 -1.47374 -9.62006e-11 2.76708e-13 1.37082e-12 -1.66138e-10 4.70722e-13 2.34725e-12 -9.61911e-11 2.75118e-13 1.3581e-12 7.73091 5.47488 0.417314 -9.62022e-11 2.76708e-13 1.36764e-12 2.90554 0.965183 0.102902 -9.61879e-11 2.76708e-13 1.3581e-12 10.2786 0.731801 0.0259123 -9.6207e-11 2.79889e-13 1.36764e-12 2.22167 -0.733487 -0.20892 -1.00138e-14 3.97569e-16 3.97569e-16 -81.3431 34.468 15.1878 17.261 -9.91369 -32.3826 0.450253 -18.7602 2.73796 -9.6176e-11 3.00562e-13 1.36764e-12 -1.66081e-10 5.1684e-13 2.36633e-12 -9.61816e-11 3.00562e-13 1.37718e-12 -7.73091 5.47488 -0.417314 -9.61744e-11 3.00562e-13 1.36764e-12 -2.90554 0.965183 -0.102902 -9.61816e-11 2.98972e-13 1.36764e-12 -10.2786 0.731801 -0.0259123 -9.61688e-11 3.05333e-13 1.35492e-12 -2.22167 -0.733487 0.20892 -0 -3.18055e-15 -0 10.2449 -8.60845 9.58112 0.0559815 20.4083 0.752472 -2.98323 -16.0523 -8.27952 3.97569e-16 -3.18055e-15 -0 -0.296378 -40.971 -3.3017 0.186267 31.4433 -0.739944 2.36964 -10.6694 8.18461 
